<?xml version="1.0" encoding="UTF-8"?>
<svg xmlns="http://www.w3.org/2000/svg" xmlns:xlink="http://www.w3.org/1999/xlink" version="1.1" viewBox="0 0 256 256">
  <defs>
    <style>
      .cls-1 {
        fill: #718367;
      }

      .cls-1, .cls-2, .cls-3, .cls-4 {
        opacity: .7;
      }

      .cls-5, .cls-6 {
        stroke: #fff;
      }

      .cls-5, .cls-6, .cls-7 {
        stroke-miterlimit: 10;
        stroke-width: 8px;
      }

      .cls-5, .cls-7 {
        fill: none;
      }

      .cls-2 {
        fill: #d4c4b2;
      }

      .cls-3 {
        fill: #b8da9e;
      }

      .cls-6 {
        fill: #fff;
      }

      .cls-7 {
        stroke: url(#linear-gradient);
      }

      .cls-4 {
        fill: #329ab1;
      }
    </style>
    <linearGradient id="linear-gradient" x1="5.62" y1="128" x2="250.38" y2="128" gradientUnits="userSpaceOnUse">
      <stop offset="0" stop-color="#f1662d"/>
      <stop offset="0" stop-color="#f0662d"/>
      <stop offset=".07" stop-color="#da7248"/>
      <stop offset=".14" stop-color="#cb7b5a"/>
      <stop offset=".21" stop-color="#c28066"/>
      <stop offset=".28" stop-color="#bf826a"/>
      <stop offset=".67" stop-color="#daf0f5"/>
      <stop offset=".89" stop-color="#23bcbc"/>
      <stop offset="1" stop-color="#93d6e3"/>
    </linearGradient>
  </defs>
  <!-- Generator: Adobe Illustrator 28.7.3, SVG Export Plug-In . SVG Version: 1.2.0 Build 164)  -->
  <g>
    <g id="Layer_1">
      <circle class="cls-6" cx="128" cy="128" r="110.18"/>
      <path class="cls-2" d="M241.04,130.83c-6.63.57-14.72,3.29-21.73,4.18-19.55,2.49-39.02,1.89-58.3-2.06h0c-48.69-10.29-86.31-53.03-100.3-99.56-.56-.53-7.72,5.3-8.6,6.08C29,59.69,15.77,86.62,13.43,117.19h0c-1.01,13.23-.71,21.24,2.15,34.38,0,0,0,0,0,0,3.65,16.75,9.81,30.01,20.06,43.69h0,0c58.23,77.74,180.4,53.85,204.18-40.11h0s0,0,0,0c2.21-8.72,3.27-14.53,3.58-23.64l-.43-.77"/>
      <path class="cls-3" d="M114.17,140.14c-42.5-22.33-52.6-26.33-100.74-22.95-1.01,13.23-.71,21.24,2.15,34.38,0,0,0,0,0,0,3.65,16.75,9.81,30.01,20.06,43.69h0s0,0,0,0c58.23,77.74,180.4,53.85,204.18-40.11h0s0,0,0,0c2.21-8.72,3.27-14.53,3.58-23.64h-1.78l-1.26,1.16c-19.75,37.54-59.5,59.98-95.09,26.53"/>
      <path class="cls-1" d="M98.86,160.39c-19.35-13.13-44.71-18.62-67.83-14.5-3.46.62-11.94,2.13-13.97,4.26-.4.42-.72.91-1.03,1.41,3.65,16.75,9.81,30.01,20.06,43.69h0,0c58.23,77.74,180.4,53.85,204.18-40.11l-3.1,1.03c-27.12,26.05-63.42,45.66-103.19,25.89"/>
      <path class="cls-4" d="M127.21,183.63c-21.05,25.33-60.64,26.49-90.51,10.58l-1.17,1.05c58.23,77.74,180.4,53.85,204.18-40.11h0s0,0,0,0c2.21-8.72,3.27-14.53,3.58-23.64,0,0,0,0,0,0,.32-9.37-.02-18.04-1.76-27.25-.39-2.06-2.4-11.31-3.17-12.45-1.51-2.24-20.22,2.66-23.56,3.69-21.21,6.57-38.99,20.45-53.5,36.93M238.19,122.47h0s0,0,0,0h0s0,0,0,0c0,0,0,0,0,0Z"/>
      <circle class="cls-5" cx="128" cy="128" r="110.18"/>
      <circle class="cls-7" cx="128" cy="128" r="118.38"/>
    </g>
  </g>
</svg>